<svg viewBox="0 0 868 1143.3" xml:space="preserve" xmlns="http://www.w3.org/2000/svg">
    <rect style="opacity:1;fill:#000;fill-opacity:1;stroke:#000;stroke-width:100;stroke-opacity:1;paint-order:stroke markers fill" width="768" height="992" x="50" y="102" ry="12.17"/>
    <rect style="opacity:1;fill:#fff;stroke:#000;stroke-width:100;stroke-opacity:1;paint-order:stroke markers fill" width="768" height="992" x="50" y="50" ry="12.17"/>
    <g style="opacity:1" transform="translate(-351.27 -189.13) scale(3.19053)">
        <path style="display:inline;fill:#020202" d="M157.29 163.47h60.27a8.66 8.66 0 0 0 8.66-8.66v-51.24a8.66 8.66 0 0 0-8.66-8.66h-60.27a8.66 8.66 0 0 0-8.67 8.66v51.24a8.66 8.66 0 0 0 8.67 8.66zm179.61 63.5h-54.71a8.66 8.66 0 0 0-8.66 8.66V355.6a8.66 8.66 0 0 0 8.66 8.66h54.7a8.66 8.66 0 0 0 8.67-8.66V235.63a8.66 8.66 0 0 0-8.67-8.66z"/>
        <path style="fill:#020202" d="M341.4 87.59h-91.53a8.32 8.32 0 1 0 0 16.64h91.53a8.32 8.32 0 1 0 0-16.64zm0 33.28h-91.53a8.32 8.32 0 1 0 0 16.65h91.53a8.32 8.32 0 1 0 0-16.65zm0 33.29h-91.53a8.32 8.32 0 1 0 0 16.64h91.53a8.32 8.32 0 1 0 0-16.64zm-99.85 66.57h-91.53a8.32 8.32 0 1 0 0 16.64h91.53a8.32 8.32 0 1 0 0-16.64zm0 33.28h-91.53a8.32 8.32 0 1 0 0 16.64h91.53a8.32 8.32 0 1 0 0-16.64zm0 33.29h-91.53a8.32 8.32 0 1 0 0 16.64h91.53a8.32 8.32 0 1 0 0-16.65z"/>
        <path style="display:inline;fill:#020202" d="M241.55 320.58h-91.53a8.32 8.32 0 1 0 0 16.64h91.53a8.32 8.32 0 1 0 0-16.64zm0 33.28h-91.53a8.32 8.32 0 1 0 0 16.64h91.53a8.32 8.32 0 1 0 0-16.64zm99.85-166.42H148.62a8.32 8.32 0 1 0 0 16.64H341.4a8.32 8.32 0 1 0 0-16.64z"/>
    </g>
    <circle style="opacity:1;fill:#fff;fill-opacity:1;stroke:none;stroke-width:100;stroke-opacity:1;paint-order:stroke markers fill" cx="430.46" cy="1092" r="30"/>
</svg>

