<svg viewBox="0 0 1144 868" xml:space="preserve" xmlns="http://www.w3.org/2000/svg">
    <g transform="rotate(90 572 572)">
        <rect style="opacity:1;fill:#000;fill-opacity:1;stroke:#000;stroke-width:100;stroke-opacity:1;paint-order:stroke markers fill" width="768" height="992" x="50" y="102" ry="12.17"/>
        <rect style="opacity:1;fill:#fff;stroke:#000;stroke-width:100;stroke-opacity:1;paint-order:stroke markers fill" width="768" height="992" x="50" y="50" ry="12.17"/>
        <g style="opacity:1" transform="rotate(-90 603.2 725.35) scale(2.43045)">
            <path style="display:inline;fill:#020202" d="M157.29 163.47h60.27a8.66 8.66 0 0 0 8.66-8.66v-51.24a8.66 8.66 0 0 0-8.66-8.66h-60.27a8.66 8.66 0 0 0-8.67 8.66v51.24a8.66 8.66 0 0 0 8.67 8.66zm179.61 63.5h-54.71a8.66 8.66 0 0 0-8.66 8.66V355.6a8.66 8.66 0 0 0 8.66 8.66h54.7a8.66 8.66 0 0 0 8.67-8.66V235.63a8.66 8.66 0 0 0-8.67-8.66z"/>
            <path style="fill:#020202" d="M341.4 87.59h-91.53a8.32 8.32 0 1 0 0 16.64h91.53a8.32 8.32 0 1 0 0-16.64zm0 33.28h-91.53a8.32 8.32 0 1 0 0 16.65h91.53a8.32 8.32 0 1 0 0-16.65zm0 33.29h-91.53a8.32 8.32 0 1 0 0 16.64h91.53a8.32 8.32 0 1 0 0-16.64zm-99.85 66.57h-91.53a8.32 8.32 0 1 0 0 16.64h91.53a8.32 8.32 0 1 0 0-16.64zm0 33.28h-91.53a8.32 8.32 0 1 0 0 16.64h91.53a8.32 8.32 0 1 0 0-16.64zm0 33.29h-91.53a8.32 8.32 0 1 0 0 16.64h91.53a8.32 8.32 0 1 0 0-16.65z"/>
            <path style="display:inline;fill:#020202" d="M241.55 320.58h-91.53a8.32 8.32 0 1 0 0 16.64h91.53a8.32 8.32 0 1 0 0-16.64zm0 33.28h-91.53a8.32 8.32 0 1 0 0 16.64h91.53a8.32 8.32 0 1 0 0-16.64zm99.85-166.42H148.62a8.32 8.32 0 1 0 0 16.64H341.4a8.32 8.32 0 1 0 0-16.64z"/>
        </g>
        <circle style="opacity:1;fill:#fff;fill-opacity:1;stroke:none;stroke-width:100;stroke-opacity:1;paint-order:stroke markers fill" cx="430.46" cy="1092" r="30"/>
        <path style="fill:#020202;stroke-width:2.63288" d="M90.8 113.92v261.06c0 13.12 9.04 23.74 20.22 23.74s20.23-10.62 20.23-23.74V113.92c0-13.11-9.05-23.73-20.23-23.73S90.8 100.8 90.8 113.92zm80.48 0v261.06c0 13.12 9.05 23.74 20.23 23.74s20.22-10.62 20.22-23.74V113.92c0-13.11-9.04-23.73-20.22-23.73s-20.23 10.62-20.23 23.73zm80.49 0v261.06c0 13.12 9.04 23.74 20.22 23.74s20.23-10.62 20.23-23.74V113.92c0-13.11-9.05-23.73-20.23-23.73s-20.22 10.62-20.22 23.73z"/>
        <path style="display:inline;fill:#020202;stroke-width:2.63288" d="M332.25 113.92v261.06c0 13.12 9.05 23.74 20.23 23.74s20.22-10.62 20.22-23.74V113.92c0-13.11-9.04-23.73-20.22-23.73s-20.23 10.62-20.23 23.73zm80.49 0v261.06c0 13.12 9.04 23.74 20.22 23.74s20.23-10.62 20.23-23.74V113.92c0-13.11-9.05-23.73-20.23-23.73s-20.22 10.62-20.22 23.73z"/>
        <path style="fill:#020202;stroke-width:2.63288" d="M493.22 113.92v261.06c0 13.12 9.05 23.74 20.23 23.74s20.22-10.62 20.22-23.74V113.92c0-13.11-9.04-23.73-20.22-23.73s-20.23 10.62-20.23 23.73zm80.48 0v261.06c0 13.12 9.05 23.74 20.23 23.74s20.23-10.62 20.23-23.74V113.92c0-13.11-9.05-23.73-20.23-23.73s-20.22 10.62-20.22 23.73z"/>
        <path style="display:inline;fill:#020202;stroke-width:2.63288" d="M654.2 113.92v261.06c0 13.12 9.04 23.74 20.22 23.74s20.22-10.62 20.22-23.74V113.92c0-13.11-9.04-23.73-20.22-23.73s-20.23 10.62-20.23 23.73zm80.48 0v261.06c0 13.12 9.04 23.74 20.22 23.74s20.23-10.62 20.23-23.74V113.92c0-13.11-9.05-23.73-20.23-23.73s-20.22 10.62-20.22 23.73z"/>
        <path style="opacity:1;fill:#fff;fill-opacity:1;stroke:#000;stroke-width:10;stroke-dasharray:none;stroke-opacity:1;paint-order:stroke markers fill" d="M759.62 440.3H103.06"/>
    </g>
</svg>

